<svg width="137" height="142" viewBox="0 0 137 142" fill="none" xmlns="http://www.w3.org/2000/svg">
<path d="M68.073 0C69.572 0.721935 72.9132 4.2598 74.1086 5.59152C90.5799 23.9391 106.857 42.4572 123.365 60.7753C127.862 65.7659 132.537 70.9742 136.705 76.2312C134.319 79.1896 127.639 85.9581 124.602 88.346C116.595 94.6441 110.414 102.42 102.787 109.041C93.9019 116.756 86.3174 125.528 77.161 132.909C73.9895 135.467 72.0318 138.918 68.4417 141.264C65.3499 139.457 60.948 134.431 58.1765 131.776L36.5451 111.12C30.7641 105.548 23.3981 99.7706 18.1841 93.6422C15.0304 89.9351 1.4122 79.4902 0 76.0141C2.33873 72.3568 5.84139 69.0733 8.76152 65.8132L23.5551 49.1929L48.251 21.4101C53.9763 14.8562 61.6649 5.51053 68.073 0ZM36.8496 66.7628C44.3971 69.1156 51.907 72.8099 59.3437 75.5243C61.8174 76.4288 66.1144 78.1905 68.5954 78.4855C71.4123 77.8287 76.8826 75.5438 79.7805 74.4194L99.2 66.8457C92.126 52.4474 84.9477 38.1005 77.6656 23.8063C76.2862 21.0474 69.5175 6.51578 68.0446 5.00678C66.6246 8.22794 64.9842 11.1633 63.4437 14.311L49.6579 41.8555L42.4433 56.3961C40.711 59.893 39.0834 63.5842 36.8496 66.7628ZM4.35655 76.6069C10.1935 80.8261 17.9951 89.6206 23.4407 94.7888L43.8382 114.218C46.5493 116.759 49.389 118.846 52.0559 121.548C56.2238 125.578 62.737 132.617 66.8442 136.087C66.3399 132.45 66.5302 123.224 66.5188 119.255C66.3616 106.598 66.5483 93.9372 67.0791 81.2908C62.8417 79.7379 37.497 69.2512 35.2373 69.2381C32.0219 69.4051 29.2915 70.5172 26.2478 71.181C19.5751 72.6357 10.8843 75.6328 4.35655 76.6069ZM34.7989 41.1389C27.0494 50.4692 18.7109 59.3606 10.6702 68.4471C9.07686 70.2478 7.65854 71.3875 6.46566 73.5549C13.1069 70.8033 26.4866 69.2195 34.0266 66.5352C36.4705 62.2801 38.6868 57.5586 40.89 53.1379C46.3904 42.1015 51.9329 31.0162 57.0284 19.7895C57.6287 18.4669 60.2346 14.3519 60.2199 13.4766C58.9068 13.7983 58.1709 15.8506 57.2299 16.8107C51.735 22.417 46.9318 28.3711 41.2977 33.8636C40.0951 35.7424 36.5855 39.9931 34.7989 41.1389ZM76.2898 13.4805C76.402 15.0585 99.8076 61.5064 102.211 65.9577C104.488 67.4678 126.166 72.7632 129.737 73.1216C128.547 71.1437 126.185 68.8977 124.573 67.055L112.814 53.7733C101.105 40.6554 89.3322 27.5206 77.6216 14.402C77.2843 14.024 76.7825 13.6255 76.2898 13.4805ZM69.9121 87.4777C70.6029 93.748 70.9494 130.226 69.6933 135.227C72.3505 134.014 80.2331 125.358 83.0023 122.94C85.6865 120.594 89.3455 117.363 92.1393 114.888C94.8733 112.573 97.1686 109.116 99.848 106.834C110.937 97.3966 121.017 86.1891 131.813 76.5902C124.871 75.4436 117.225 72.8848 110.299 71.0727C107.851 70.432 105.164 69.4936 102.652 69.2679C99.1023 68.9487 74.6266 79.3538 69.3399 81.3632C69.3571 83.6119 69.7373 85.2874 69.9121 87.4777Z" fill="#E3C46E"/>
</svg>
