<svg width="214" height="220" viewBox="0 0 214 220" fill="none" xmlns="http://www.w3.org/2000/svg">
<path d="M90.1536 16.2394C81.8869 25.4394 71.6202 37.0394 67.2202 41.9728C53.3536 57.5728 43.2202 69.0394 40.4202 72.2394C16.1536 99.3061 0.286906 117.306 0.0202397 118.239C-0.246427 118.906 2.15357 121.839 5.35357 124.906C8.55357 127.973 17.3536 136.506 25.0869 143.973C32.8202 151.306 48.9536 166.773 61.0869 178.106C73.2202 189.439 87.7536 203.306 93.4869 208.773C108.154 222.773 105.887 222.906 121.487 207.973C128.954 200.773 141.754 188.639 149.887 180.906C219.487 114.506 214.687 119.306 212.82 116.639C210.687 113.839 177.62 76.6394 158.42 55.3061C129.354 23.3061 114.554 6.63943 111.754 3.03943C107.487 -2.42724 106.554 -1.8939 90.1536 16.2394ZM114.42 22.1061C116.287 25.9728 126.02 45.8394 136.02 66.1061C155.754 105.839 155.487 104.906 146.42 107.039C144.554 107.439 140.687 108.906 137.754 110.239C123.22 116.639 107.22 122.239 105.22 121.706C98.8202 119.573 84.0202 113.839 81.0869 112.239C79.2202 111.306 73.7536 109.173 68.8202 107.439C63.7536 105.839 59.7536 104.106 59.7536 103.439C59.7536 102.773 66.8202 87.9728 75.6202 70.5061C84.2869 53.0394 94.8202 31.7061 99.0869 23.0394L106.687 7.17276L108.954 11.0394C110.154 13.0394 112.687 18.1061 114.42 22.1061ZM74.4202 61.0394C63.2202 83.3061 53.7536 101.973 53.0869 102.506C52.5536 103.173 45.8869 105.039 38.2869 106.773C30.5536 108.639 21.7536 110.906 18.5536 112.106C10.1536 115.039 9.35357 114.106 15.4869 107.839C19.8869 103.173 39.2202 81.7061 44.5536 75.5728C46.6869 73.0394 49.6202 69.7061 51.0869 68.2394C56.6869 62.6394 92.4202 21.8394 92.9536 20.5061C93.0869 19.8394 93.6202 19.5728 94.0202 19.9728C94.4202 20.2394 85.6202 38.7728 74.4202 61.0394ZM134.954 36.7728C137.22 39.3061 143.354 46.2394 148.42 52.1061C160.954 66.5061 192.42 101.573 198.154 107.706C203.887 113.839 203.354 114.773 195.62 112.239C192.42 111.173 184.42 109.039 177.754 107.439C171.22 105.839 164.42 104.106 162.954 103.439C160.554 102.506 122.287 29.4394 120.02 21.5728C119.62 20.2394 123.62 24.3728 134.954 36.7728ZM74.8202 115.573C84.5536 119.306 95.0869 123.573 98.4202 124.906L104.42 127.573L104.687 169.573C104.687 192.639 104.554 211.439 104.154 211.439C103.887 211.439 97.4869 205.573 90.1536 198.373C58.0202 167.173 18.5536 129.573 12.9536 124.906C7.48691 120.373 7.62024 120.239 22.1536 116.373C54.8202 107.306 53.4869 107.306 74.8202 115.573ZM172.687 111.439C190.554 115.573 205.087 119.839 205.087 120.906C205.087 121.439 203.887 122.773 202.287 123.839C197.754 127.173 166.42 156.639 119.354 202.373C114.154 207.439 109.754 211.439 109.62 211.439C109.354 211.439 109.087 192.639 109.087 169.706V127.839L115.487 125.039C118.954 123.439 126.02 120.639 131.087 118.639C136.287 116.773 144.02 113.839 148.42 112.106C158.287 108.106 158.287 108.239 172.687 111.439Z" fill="#E3C46E"/>
<path d="M84.728 84.2481C84.728 82.3281 84.6 80.9628 84.344 80.1521C84.088 79.2988 83.5333 78.7228 82.68 78.4241C81.8267 78.1254 80.3973 77.9761 78.392 77.9761C78.392 76.2694 78.5413 74.9041 78.84 73.8801C81.656 73.6668 84.0667 73.3041 86.072 72.7921C88.12 72.2801 90.1467 71.5547 92.152 70.6161C92.8773 70.8294 93.368 71.2348 93.624 71.8321C93.9227 72.3868 94.072 73.2614 94.072 74.4561V91.6721C94.072 93.8908 94.1787 95.4908 94.392 96.4721C94.648 97.4534 95.096 98.1361 95.736 98.5201C96.4187 98.8614 97.528 99.0961 99.064 99.2241C99.32 100.419 99.448 101.741 99.448 103.192C96.632 103.064 93.0907 103 88.824 103C84.984 103 81.6347 103.064 78.776 103.192C78.776 101.613 78.9253 100.291 79.224 99.2241C80.8453 99.0961 82.0187 98.8614 82.744 98.5201C83.512 98.1361 84.024 97.4534 84.28 96.4721C84.5787 95.4908 84.728 93.8908 84.728 91.6721V84.2481Z" fill="#E3C46E"/>
<path d="M120.541 103.448C115.677 103.448 111.879 102.019 109.148 99.1601C106.418 96.3014 105.052 92.2694 105.052 87.0641C105.052 81.8588 106.418 77.8481 109.148 75.0321C111.879 72.1734 115.698 70.7441 120.604 70.7441C125.468 70.7441 129.244 72.1521 131.932 74.9681C134.663 77.7841 136.029 81.7948 136.029 87.0001C136.029 92.2481 134.663 96.3014 131.932 99.1601C129.244 102.019 125.447 103.448 120.541 103.448ZM121.181 99.6721C124.807 99.6721 126.62 95.9174 126.62 88.4081C126.62 83.9281 126.023 80.4934 124.828 78.1041C123.676 75.7148 122.034 74.5201 119.901 74.5201C116.317 74.5201 114.524 78.2534 114.524 85.7201C114.524 90.2001 115.101 93.6561 116.253 96.0881C117.447 98.4774 119.09 99.6721 121.181 99.6721Z" fill="#E3C46E"/>
</svg>
