<svg width="440" height="220" viewBox="0 0 440 220" fill="none" xmlns="http://www.w3.org/2000/svg">
<path d="M90.1536 16.2394C81.8869 25.4394 71.6202 37.0394 67.2202 41.9728C53.3536 57.5728 43.2202 69.0394 40.4202 72.2394C16.1536 99.3061 0.286906 117.306 0.0202397 118.239C-0.246427 118.906 2.15357 121.839 5.35357 124.906C8.55357 127.973 17.3536 136.506 25.0869 143.973C32.8202 151.306 48.9536 166.773 61.0869 178.106C73.2202 189.439 87.7536 203.306 93.4869 208.773C108.154 222.773 105.887 222.906 121.487 207.973C128.954 200.773 141.754 188.639 149.887 180.906C219.487 114.506 214.687 119.306 212.82 116.639C210.687 113.839 177.62 76.6394 158.42 55.3061C129.354 23.3061 114.554 6.63943 111.754 3.03943C107.487 -2.42724 106.554 -1.8939 90.1536 16.2394ZM114.42 22.1061C116.287 25.9728 126.02 45.8394 136.02 66.1061C155.754 105.839 155.487 104.906 146.42 107.039C144.554 107.439 140.687 108.906 137.754 110.239C123.22 116.639 107.22 122.239 105.22 121.706C98.8202 119.573 84.0202 113.839 81.0869 112.239C79.2202 111.306 73.7536 109.173 68.8202 107.439C63.7536 105.839 59.7536 104.106 59.7536 103.439C59.7536 102.773 66.8202 87.9728 75.6202 70.5061C84.2869 53.0394 94.8202 31.7061 99.0869 23.0394L106.687 7.17276L108.954 11.0394C110.154 13.0394 112.687 18.1061 114.42 22.1061ZM74.4202 61.0394C63.2202 83.3061 53.7536 101.973 53.0869 102.506C52.5536 103.173 45.8869 105.039 38.2869 106.773C30.5536 108.639 21.7536 110.906 18.5536 112.106C10.1536 115.039 9.35357 114.106 15.4869 107.839C19.8869 103.173 39.2202 81.7061 44.5536 75.5728C46.6869 73.0394 49.6202 69.7061 51.0869 68.2394C56.6869 62.6394 92.4202 21.8394 92.9536 20.5061C93.0869 19.8394 93.6202 19.5728 94.0202 19.9728C94.4202 20.2394 85.6202 38.7728 74.4202 61.0394ZM134.954 36.7728C137.22 39.3061 143.354 46.2394 148.42 52.1061C160.954 66.5061 192.42 101.573 198.154 107.706C203.887 113.839 203.354 114.773 195.62 112.239C192.42 111.173 184.42 109.039 177.754 107.439C171.22 105.839 164.42 104.106 162.954 103.439C160.554 102.506 122.287 29.4394 120.02 21.5728C119.62 20.2394 123.62 24.3728 134.954 36.7728ZM74.8202 115.573C84.5536 119.306 95.0869 123.573 98.4202 124.906L104.42 127.573L104.687 169.573C104.687 192.639 104.554 211.439 104.154 211.439C103.887 211.439 97.4869 205.573 90.1536 198.373C58.0202 167.173 18.5536 129.573 12.9536 124.906C7.48691 120.373 7.62024 120.239 22.1536 116.373C54.8202 107.306 53.4869 107.306 74.8202 115.573ZM172.687 111.439C190.554 115.573 205.087 119.839 205.087 120.906C205.087 121.439 203.887 122.773 202.287 123.839C197.754 127.173 166.42 156.639 119.354 202.373C114.154 207.439 109.754 211.439 109.62 211.439C109.354 211.439 109.087 192.639 109.087 169.706V127.839L115.487 125.039C118.954 123.439 126.02 120.639 131.087 118.639C136.287 116.773 144.02 113.839 148.42 112.106C158.287 108.106 158.287 108.239 172.687 111.439Z" fill="#E3C46E"/>
<path d="M84.728 84.2481C84.728 82.3281 84.6 80.9628 84.344 80.1521C84.088 79.2988 83.5333 78.7228 82.68 78.4241C81.8267 78.1254 80.3973 77.9761 78.392 77.9761C78.392 76.2694 78.5413 74.9041 78.84 73.8801C81.656 73.6668 84.0667 73.3041 86.072 72.7921C88.12 72.2801 90.1467 71.5547 92.152 70.6161C92.8773 70.8294 93.368 71.2348 93.624 71.8321C93.9227 72.3868 94.072 73.2614 94.072 74.4561V91.6721C94.072 93.8908 94.1787 95.4908 94.392 96.4721C94.648 97.4534 95.096 98.1361 95.736 98.5201C96.4187 98.8614 97.528 99.0961 99.064 99.2241C99.32 100.419 99.448 101.741 99.448 103.192C96.632 103.064 93.0907 103 88.824 103C84.984 103 81.6347 103.064 78.776 103.192C78.776 101.613 78.9253 100.291 79.224 99.2241C80.8453 99.0961 82.0187 98.8614 82.744 98.5201C83.512 98.1361 84.024 97.4534 84.28 96.4721C84.5787 95.4908 84.728 93.8908 84.728 91.6721V84.2481Z" fill="#E3C46E"/>
<path d="M120.541 103.448C115.677 103.448 111.879 102.019 109.148 99.1601C106.418 96.3014 105.052 92.2694 105.052 87.0641C105.052 81.8588 106.418 77.8481 109.148 75.0321C111.879 72.1734 115.698 70.7441 120.604 70.7441C125.468 70.7441 129.244 72.1521 131.932 74.9681C134.663 77.7841 136.029 81.7948 136.029 87.0001C136.029 92.2481 134.663 96.3014 131.932 99.1601C129.244 102.019 125.447 103.448 120.541 103.448ZM121.181 99.6721C124.807 99.6721 126.62 95.9174 126.62 88.4081C126.62 83.9281 126.023 80.4934 124.828 78.1041C123.676 75.7148 122.034 74.5201 119.901 74.5201C116.317 74.5201 114.524 78.2534 114.524 85.7201C114.524 90.2001 115.101 93.6561 116.253 96.0881C117.447 98.4774 119.09 99.6721 121.181 99.6721Z" fill="#E3C46E"/>
<path d="M316.154 16.2394C307.887 25.4394 297.62 37.0394 293.22 41.9728C279.354 57.5728 269.22 69.0394 266.42 72.2394C242.154 99.3061 226.287 117.306 226.02 118.239C225.754 118.906 228.154 121.839 231.354 124.906C234.554 127.973 243.354 136.506 251.087 143.973C258.82 151.306 274.954 166.773 287.087 178.106C299.22 189.439 313.754 203.306 319.487 208.773C334.154 222.773 331.887 222.906 347.487 207.973C354.954 200.773 367.754 188.639 375.887 180.906C445.487 114.506 440.687 119.306 438.82 116.639C436.687 113.839 403.62 76.6394 384.42 55.3061C355.354 23.3061 340.554 6.63943 337.754 3.03943C333.487 -2.42724 332.554 -1.8939 316.154 16.2394ZM340.42 22.1061C342.287 25.9728 352.02 45.8394 362.02 66.1061C381.754 105.839 381.487 104.906 372.42 107.039C370.554 107.439 366.687 108.906 363.754 110.239C349.22 116.639 333.22 122.239 331.22 121.706C324.82 119.573 310.02 113.839 307.087 112.239C305.22 111.306 299.754 109.173 294.82 107.439C289.754 105.839 285.754 104.106 285.754 103.439C285.754 102.773 292.82 87.9728 301.62 70.5061C310.287 53.0394 320.82 31.7061 325.087 23.0394L332.687 7.17276L334.954 11.0394C336.154 13.0394 338.687 18.1061 340.42 22.1061ZM300.42 61.0394C289.22 83.3061 279.754 101.973 279.087 102.506C278.554 103.173 271.887 105.039 264.287 106.773C256.554 108.639 247.754 110.906 244.554 112.106C236.154 115.039 235.354 114.106 241.487 107.839C245.887 103.173 265.22 81.7061 270.554 75.5728C272.687 73.0394 275.62 69.7061 277.087 68.2394C282.687 62.6394 318.42 21.8394 318.954 20.5061C319.087 19.8394 319.62 19.5728 320.02 19.9728C320.42 20.2394 311.62 38.7728 300.42 61.0394ZM360.954 36.7728C363.22 39.3061 369.354 46.2394 374.42 52.1061C386.954 66.5061 418.42 101.573 424.154 107.706C429.887 113.839 429.354 114.773 421.62 112.239C418.42 111.173 410.42 109.039 403.754 107.439C397.22 105.839 390.42 104.106 388.954 103.439C386.554 102.506 348.287 29.4394 346.02 21.5728C345.62 20.2394 349.62 24.3728 360.954 36.7728ZM300.82 115.573C310.554 119.306 321.087 123.573 324.42 124.906L330.42 127.573L330.687 169.573C330.687 192.639 330.554 211.439 330.154 211.439C329.887 211.439 323.487 205.573 316.154 198.373C284.02 167.173 244.554 129.573 238.954 124.906C233.487 120.373 233.62 120.239 248.154 116.373C280.82 107.306 279.487 107.306 300.82 115.573ZM398.687 111.439C416.554 115.573 431.087 119.839 431.087 120.906C431.087 121.439 429.887 122.773 428.287 123.839C423.754 127.173 392.42 156.639 345.354 202.373C340.154 207.439 335.754 211.439 335.62 211.439C335.354 211.439 335.087 192.639 335.087 169.706V127.839L341.487 125.039C344.954 123.439 352.02 120.639 357.087 118.639C362.287 116.773 370.02 113.839 374.42 112.106C384.287 108.106 384.287 108.239 398.687 111.439Z" fill="#E3C46E"/>
<path d="M314.728 103.448C309.864 103.448 306.067 102.019 303.336 99.1601C300.605 96.3014 299.24 92.2694 299.24 87.0641C299.24 81.8588 300.605 77.8481 303.336 75.0321C306.067 72.1734 309.885 70.7441 314.792 70.7441C319.656 70.7441 323.432 72.1521 326.12 74.9681C328.851 77.7841 330.216 81.7948 330.216 87.0001C330.216 92.2481 328.851 96.3014 326.12 99.1601C323.432 102.019 319.635 103.448 314.728 103.448ZM315.368 99.6721C318.995 99.6721 320.808 95.9174 320.808 88.4081C320.808 83.9281 320.211 80.4934 319.016 78.1041C317.864 75.7148 316.221 74.5201 314.088 74.5201C310.504 74.5201 308.712 78.2534 308.712 85.7201C308.712 90.2001 309.288 93.6561 310.44 96.0881C311.635 98.4774 313.277 99.6721 315.368 99.6721Z" fill="#E3C46E"/>
<path d="M350.228 103.448C345.364 103.448 341.567 102.019 338.836 99.1601C336.105 96.3014 334.74 92.2694 334.74 87.0641C334.74 81.8588 336.105 77.8481 338.836 75.0321C341.567 72.1734 345.385 70.7441 350.292 70.7441C355.156 70.7441 358.932 72.1521 361.62 74.9681C364.351 77.7841 365.716 81.7948 365.716 87.0001C365.716 92.2481 364.351 96.3014 361.62 99.1601C358.932 102.019 355.135 103.448 350.228 103.448ZM350.868 99.6721C354.495 99.6721 356.308 95.9174 356.308 88.4081C356.308 83.9281 355.711 80.4934 354.516 78.1041C353.364 75.7148 351.721 74.5201 349.588 74.5201C346.004 74.5201 344.212 78.2534 344.212 85.7201C344.212 90.2001 344.788 93.6561 345.94 96.0881C347.135 98.4774 348.777 99.6721 350.868 99.6721Z" fill="#E3C46E"/>
</svg>
