<svg width="133" height="140" viewBox="0 0 133 140" fill="none" xmlns="http://www.w3.org/2000/svg">
<path d="M66.2474 0C71.978 1.8861 104.416 11.6244 106.943 13.6035C110.336 16.263 115.549 24.553 118.054 28.4057C119.755 30.616 129.563 43.8115 130.153 45.6085C131.021 46.579 131.667 47.7465 131.778 49.0412C132.184 53.7376 131.995 59.1633 131.981 63.8848L132.062 89.2174C132.065 90.5115 131.917 91.7277 131.335 92.8938C129.011 97.5499 124.787 102.454 121.711 106.723C117.561 112.481 112.902 120.037 108.012 125.022C105.663 127.418 75.4014 137.059 69.5121 138.996C67.9229 139.519 66.5285 139.817 64.8669 139.511C61.7358 138.935 58.5572 137.521 55.556 136.46C50.6474 134.716 45.7213 133.021 40.7783 131.376C39.0931 130.813 26.343 126.998 25.926 126.569C16.8932 117.14 7.75785 102.855 0.497309 92.1563C0.115454 91.5913 -0.185699 54.1546 0.13604 50.8438C0.297885 49.0871 0.839972 47.3866 1.72469 45.8604C3.20369 43.2704 24.2636 13.9127 25.4295 13.1802C27.9789 11.5777 31.9013 10.9746 34.8245 10.0139C45.2164 6.59844 55.7163 2.94034 66.2474 0ZM25.6174 56.5853C27.3947 60.1613 29.2422 67.0973 30.6052 71.1562C34.2258 81.9396 37.3494 93.7371 41.4922 104.285C48.9292 103.734 58.9128 104.015 66.5898 104.032C72.9215 104.021 84.9505 103.645 90.8398 104.104C92.34 100.469 93.7455 96.0526 94.8949 92.2649C98.4797 80.459 102.83 68.6472 106.287 56.8311C103.963 54.471 95.9386 49.0156 92.7519 46.6717C87.0273 42.4309 81.2668 38.2389 75.471 34.0962C73.9235 32.983 67.1019 27.7658 65.9357 27.7424C56.681 33.5366 47.8588 41.2981 38.6678 47.2931C34.9545 49.7152 29.4409 54.9591 25.6174 56.5853ZM128.388 50.8638C122.282 52.6536 114.945 55.5355 109.217 57.0484C105.744 67.2415 102.554 77.6313 99.234 87.887C97.8646 92.1062 94.2631 101.58 93.765 105.409C96.2531 108.552 98.9556 111.855 101.352 115.039C103.13 117.435 104.887 119.851 106.615 122.286C113.907 112.384 121.38 101.491 128.942 91.9253C129.281 88.7665 129.284 52.0266 128.934 50.9799L128.388 50.8638ZM27.7702 124.14C37.6995 127.694 47.7756 130.944 57.7136 134.484C60.4249 135.45 63.4169 136.524 66.1834 137.248C72.0476 135.751 78.7663 132.667 84.7307 131.045C91.2016 128.829 97.9982 126.316 104.472 124.257C102.98 122.478 101.399 120.385 100.049 118.473C97.3274 114.619 93.8095 110.856 91.2072 106.973C86.0499 106.589 78.0009 106.798 72.71 106.798C62.3816 106.762 52.0545 106.804 41.7277 106.921C39.5239 107.945 30.0304 121.29 27.7702 124.14ZM25.5843 122.264C26.9127 119.982 29.7997 116.536 31.52 114.315C32.9428 112.465 38.8131 105.526 38.4569 104.611C36.0753 98.4934 24.8442 60.195 22.7947 56.8929C16.6622 55.4234 9.99861 52.5103 3.27105 50.8421C2.88864 55.6335 2.30946 88.3991 3.56886 91.6331C4.79346 94.778 9.78097 100.589 11.9705 103.561L25.5843 122.264ZM64.1656 3.89829C56.9148 5.25504 46.497 9.1472 39.2445 11.3403C36.4638 12.181 28.8765 14.6892 26.6795 15.7534L11.2079 37.7791C8.89979 41.0228 6.14026 45.1056 3.71024 48.1907C6.0935 48.4606 8.16253 49.2613 10.435 50.0245C14.3251 51.3904 19.0721 53.4207 23.196 53.8515C24.0952 53.9455 25.1225 53.2637 25.8707 52.7552C34.048 47.1991 41.9353 41.2193 49.9017 35.3681C54.3356 32.0245 60.9788 27.9643 64.9783 24.6599C64.8948 17.8085 64.8837 10.9562 64.9393 4.1045C64.4105 3.84317 64.6582 3.84485 64.1656 3.89829ZM67.2688 3.38369C67.8477 9.55799 68.2151 18.8719 67.447 24.9524C71.324 27.0205 76.5063 31.4963 80.2442 34.1046C85.1203 37.5066 89.9241 41.0058 94.7251 44.5053C99.0113 47.6318 104.054 51.7091 108.491 54.4665C112.991 52.8551 118.126 51.4998 122.538 49.7333L128.171 48.01C124.664 42.2315 118.964 35.0706 115.07 29.3171C112.952 26.187 106.916 17.4275 104.608 15.0156C92.7797 11.2498 78.9639 6.2333 67.2688 3.38369Z" fill="#E3C46E"/>
</svg>
