<svg width="207" height="220" viewBox="0 0 207 220" fill="none" xmlns="http://www.w3.org/2000/svg">
<path d="M90.6667 3.86667C84.4 6 70.4 10.5333 59.6 14C48.6667 17.6 39.2 21.0667 38.5333 21.8667C36.5333 24.2667 22.8 43.4667 10.9333 60.2667L0 75.8667V146L5.73333 153.733C8.8 158 16.9333 169.067 23.8667 178.4C30.6667 187.733 36.6667 196 36.9333 196.933C37.6 198.533 41.3333 199.867 72 210C79.7333 212.533 89.3333 215.867 93.3333 217.2C103.6 220.933 102.533 221.2 137.333 209.333C170.267 198.133 169.867 198.4 177.333 187.2C178.4 185.467 183.867 178.133 189.333 170.667C194.8 163.2 200.933 154.667 202.933 151.6L206.667 146V75.2L198.933 63.8667C194.8 57.7333 188.4 48.8 184.933 44C181.467 39.2 176.267 32 173.467 28L168.267 20.6667L145.867 13.6C133.467 9.6 122.133 5.86667 120.667 5.2C117.333 3.6 105.067 0 103.333 0C102.667 0 96.9333 1.73333 90.6667 3.86667ZM101.067 22.9333L100.667 39.2L91.7333 45.8667C86.9333 49.6 79.4667 55.0667 75.3333 58C71.2 60.9333 62.9333 66.9333 56.9333 71.3333C50.9333 75.7333 44 80.8 41.6 82.4L37.3333 85.6L26.2667 82C5.06667 75.2 6 76 12.4 67.6C14.6667 64.4 17.7333 60.4 18.9333 58.5333C20.2667 56.8 24.2667 51.0667 27.8667 46C43.6 23.6 41.3333 25.4667 64.2667 18.2667C75.4667 14.6667 87.3333 10.6667 90.6667 9.33333C101.6 4.66667 101.467 4.4 101.067 22.9333ZM118.667 10C120.533 10.8 131.6 14.6667 143.333 18.5333L164.667 25.4667L171.333 34.4C174.933 39.3333 180.533 47.2 183.733 52C187.067 56.8 192 63.7333 194.8 67.4667C197.733 71.2 200 74.6667 200 75.0667C200 75.4667 193.067 78 184.667 80.6667L169.2 85.4667L165.6 82.6667C161.067 79.0667 134.8 59.6 127.467 54.4C124.4 52.4 118.533 48.1333 114.4 45.2L106.667 39.8667V6.4L111.067 7.33333C113.333 7.86667 116.8 9.06667 118.667 10ZM114.4 51.7333C130.133 63.7333 144.267 74.1333 148.667 76.8C158.133 82.8 165.333 88.6667 165.333 90.4C165.333 91.4667 163.6 97.4667 161.467 103.867C158.533 112.667 147.733 146.533 143.2 160.933C142.933 162.267 133.733 162.667 103.6 162.667H64.5333L62.1333 154.933C60.9333 150.8 55.6 134.267 50.4 118.267C45.2 102.267 41.2 89.0667 41.4667 88.9333C41.7333 88.6667 51.6 81.6 63.3333 73.3333C75.0667 64.9333 88.9333 54.9333 94 51.0667C99.2 47.2 103.467 44 103.733 44C104 44 108.8 47.4667 114.4 51.7333ZM8.8 81.2C9.46667 81.8667 15.0667 84 21.3333 85.8667C27.6 87.7333 33.3333 89.7333 34.2667 90.2667C35.7333 91.3333 39.6 102.4 53.2 144.4L60 165.467L53.0667 174.8C49.2 179.867 44.9333 185.467 43.6 187.333C40.2667 192 39.2 191.6 34 183.6C31.4667 179.867 26.9333 173.333 24 169.333C21.0667 165.333 17.6 160.533 16.2667 158.667C15.0667 156.8 12.1333 152.8 9.73333 149.6L5.33333 143.733V111.867C5.33333 81.7333 5.73333 78.4 8.8 81.2ZM185.067 167.2C176.133 179.733 168.533 190.267 168.267 190.667C167.2 192 149.6 169.867 148.533 165.867C148.133 164.267 151.733 151.333 157.067 135.2C162.267 119.867 167.467 103.6 168.667 99.0667L170.933 90.8L185.867 85.7333L200.667 80.6667L201.067 112.533L201.333 144.267L185.067 167.2ZM152.133 180.667C157.6 187.733 162.133 193.867 162.267 194.4C162.4 194.933 152.533 198.667 140.267 202.667C128 206.667 116.533 210.8 114.667 211.6C106.8 215.6 103.6 215.2 81.0667 207.333C69.2 203.2 56.1333 198.8 52.4 197.733C48.5333 196.533 45.3333 195.067 45.3333 194.4C45.3333 193.467 55.7333 179.6 63.3333 170.267C65.2 168.267 68.8 168 103.733 168H142.267L152.133 180.667Z" fill="#E3C46E"/>
<path d="M83.728 105.248C83.728 103.328 83.6 101.963 83.344 101.152C83.088 100.299 82.5333 99.7225 81.68 99.4239C80.8267 99.1252 79.3973 98.9758 77.392 98.9758C77.392 97.2692 77.5413 95.9038 77.84 94.8798C80.656 94.6665 83.0667 94.3038 85.072 93.7918C87.12 93.2798 89.1467 92.5545 91.152 91.6158C91.8773 91.8292 92.368 92.2345 92.624 92.8318C92.9227 93.3865 93.072 94.2612 93.072 95.4558V112.672C93.072 114.891 93.1787 116.491 93.392 117.472C93.648 118.453 94.096 119.136 94.736 119.52C95.4187 119.861 96.528 120.096 98.064 120.224C98.32 121.419 98.448 122.741 98.448 124.192C95.632 124.064 92.0907 124 87.824 124C83.984 124 80.6347 124.064 77.776 124.192C77.776 122.613 77.9253 121.291 78.224 120.224C79.8453 120.096 81.0187 119.861 81.744 119.52C82.512 119.136 83.024 118.453 83.28 117.472C83.5787 116.491 83.728 114.891 83.728 112.672V105.248Z" fill="#E3C46E"/>
<path d="M129.589 113.376C129.503 114.741 129.46 115.765 129.46 116.448C129.46 118.581 129.61 120.437 129.909 122.016C129.439 123.467 128.351 124.192 126.645 124.192L123.061 124.128C120.501 124.043 118.431 124 116.853 124C115.359 124 113.162 124.043 110.26 124.128L105.269 124.192C104.501 122.827 104.117 121.099 104.117 119.008L105.141 118.112C107.146 116.363 108.767 114.933 110.005 113.824C111.242 112.672 112.479 111.392 113.716 109.984C115.85 107.723 117.322 105.845 118.132 104.352C118.986 102.816 119.412 101.387 119.412 100.064C119.412 98.5705 119.007 97.4612 118.197 96.7358C117.429 95.9678 116.362 95.5838 114.996 95.5838C113.46 95.5838 112.308 96.1598 111.54 97.3118C110.772 98.4212 110.239 100.341 109.94 103.072C108.02 103.157 106.25 102.859 104.629 102.176C104.757 100.896 104.821 99.5305 104.821 98.0798C104.821 96.6292 104.757 95.3279 104.629 94.1758C108.085 92.5972 112.181 91.8078 116.917 91.8078C120.885 91.8078 123.829 92.4052 125.749 93.5998C127.711 94.7518 128.693 96.5865 128.693 99.1038C128.693 100.725 128.287 102.219 127.477 103.584C126.709 104.907 125.748 106.101 124.596 107.168C123.444 108.192 121.887 109.429 119.924 110.88C117.066 113.099 114.954 114.869 113.589 116.192H120.053C121.461 116.192 122.463 116.128 123.061 116C123.701 115.829 124.149 115.531 124.405 115.104C124.703 114.677 124.938 113.952 125.109 112.928L126.068 112.864C127.519 112.864 128.693 113.035 129.589 113.376Z" fill="#E3C46E"/>
</svg>
