<svg width="127" height="141" viewBox="0 0 127 141" fill="none" xmlns="http://www.w3.org/2000/svg">
<path d="M63.1023 0C63.8509 0.00333971 64.8668 0.486762 65.5348 0.816837C82.4038 9.13662 99.0056 17.9657 115.883 26.263C119.384 27.9843 123.2 29.7468 126.512 31.7846C126.668 38.174 125.861 45.4285 125.905 51.905C125.933 55.8303 125.14 60.1257 125.123 64.0618C125.079 70.2862 124.978 76.5368 124.497 82.7458C123.951 89.7982 124.333 96.8478 123.912 103.883C119.164 107.215 115.115 109.433 110.111 112.389L92.1478 123.048C82.5012 128.745 73.0438 135.043 63.2164 140.398C61.9277 139.763 60.667 138.937 59.4145 138.216C49.7206 132.633 40.3078 126.574 30.703 120.858L11.869 109.756C9.2584 108.236 6.04104 106.533 3.54729 104.807C3.04632 104.34 2.90436 102.528 2.87096 101.855C2.0527 84.4407 1.46265 66.9896 0.772414 49.5702C0.533058 43.5568 -0.148805 37.6391 0.0293203 31.6327C3.0157 29.1162 8.26481 27.5713 12.0555 25.6443L63.1023 0ZM63.6478 86.7312C71.7636 86.7452 79.8794 86.7118 87.9952 86.6311C91.4464 86.5865 98.1762 86.1245 101.299 86.6477C98.9054 81.2263 94.9365 75.0562 92.0253 69.7299C86.6621 59.9072 80.9621 50.1372 75.5821 40.3256C72.0475 33.8789 66.6341 25.4353 63.5698 18.9893L63.1663 18.7686C62.1003 20.9484 61.0121 22.496 59.8348 24.5764L51.6355 39.1952L24.7414 87.0958C29.4116 86.1301 37.2491 86.6366 42.3229 86.6951L63.6478 86.7312ZM63.5197 136.184C67.6194 130.109 75.4819 121.573 80.2746 115.147C85.482 109.255 90.347 102.445 95.4681 96.4331C96.9933 94.6436 99.4537 91.1731 100.998 89.6646L48.2566 89.5895L33.7784 89.6034C31.7718 89.6062 27.6916 89.7175 25.8463 89.4364C26.0829 90.6637 30.1575 95.3004 31.1594 96.5389C34.914 101.262 38.6964 105.962 42.5094 110.641L55.891 127.222C57.8977 129.694 61.3878 134.205 63.5197 136.184ZM103.665 23.771C96.3838 19.3798 92.3648 17.5229 84.8196 13.6939C78.0734 10.2027 71.2838 6.79614 64.4521 3.47525C64.5106 6.88677 64.672 10.9064 64.6219 14.2731C67.4552 15.6416 73.0939 17.0431 76.2668 17.905C82.4887 19.6367 88.7368 21.2728 95.0089 22.8128C97.3273 23.38 100.244 24.3894 102.434 24.7632C104.483 24.8007 106.991 26.3926 108.585 26.2031C107.931 25.1244 104.953 23.7626 103.665 23.771ZM113.058 93.394C116.339 96.5194 117.347 97.6131 121.177 100.187C121.152 95.9683 121.686 90.6944 121.861 86.311L123.086 52.3277C123.133 50.7656 123.587 44.1268 123.244 43.0545L122.916 42.7603C118.758 53.1866 114.873 63.2297 111.035 73.7648C109.974 76.6787 106.924 85.3508 105.766 87.5272C108.391 89.5227 110.291 91.4291 113.058 93.394ZM119.852 103.26C115.989 100.371 112.24 96.8255 108.435 93.817C107.071 92.7371 105.468 91.1508 104.04 90.3047C102.237 93.4329 96.9349 99.4444 94.4968 102.578C86.7817 112.494 77.9423 122.48 70.5724 132.611C73.7285 130.757 78.0731 128.341 81.0734 126.429C91.0094 120.421 101.291 114.813 111.093 108.551C113.509 107.006 117.748 104.768 119.852 103.26ZM62.1226 3.17941C57.7112 5.81723 52.9464 7.76596 48.3791 10.1021C39.3337 14.7301 30.3467 19.4636 21.1761 23.8403C20.5248 24.1511 20.1324 24.5797 19.8708 25.2263L20.1491 25.6081C21.9721 25.8268 23.5947 24.3526 24.8137 24.7534C26.4502 24.4175 28.1536 23.8199 29.7957 23.4278C39.2307 21.1732 48.663 17.9935 58.0646 15.7209L62.2033 14.7788C61.6828 11.2657 61.6355 6.71032 62.1226 3.17941ZM13.6559 93.842C15.028 92.7538 20.202 88.9382 20.6278 87.6691C19.9682 84.2766 4.00374 43.01 3.19661 42.4851C3.22166 50.9963 3.87011 58.3147 4.14287 66.6746L5.00569 88.2146C5.18938 92.6314 5.17824 96.1158 5.55119 100.569C8.12287 98.1781 10.8309 95.9293 13.6559 93.842ZM28.5627 26.2952C27.0625 26.9084 20.4079 28.5621 18.6127 29.0065C13.461 30.2826 7.78611 32.0846 2.67615 33.1475C5.08362 37.6617 9.27233 49.334 11.1176 54.402C14.6328 64.064 19.3976 74.9281 22.6261 84.5437C25.9688 79.9655 31.3069 69.6216 34.2738 64.4904C42.6652 49.9866 50.5695 35.0637 59.0137 20.586C59.6873 19.433 59.9712 19.1505 59.6817 18.0587C49.2746 20.6738 38.9008 23.4196 28.5627 26.2952ZM45.326 126.538C48.9274 128.642 52.5483 130.715 56.186 132.758C47.4925 121.474 38.6317 110.32 29.6064 99.2997C28.5126 97.961 23.1633 91.2955 22.2031 90.647C21.023 91.8271 19.8513 92.7511 18.5042 93.7252C14.4797 96.6418 10.6751 100.672 6.55035 103.38C19.2696 110.975 32.7932 118.734 45.326 126.538ZM66.7093 18.1029C67.2631 20.3898 72.6319 29.0232 74.043 31.6391C79.949 42.5989 86.0999 53.4407 92.2953 64.2388C94.9477 68.817 97.5667 73.4141 100.149 78.0341C101.035 79.6288 103.005 82.9991 103.601 84.5938C105.574 81.0481 107.736 74.8335 109.228 70.8704C112.393 63.1598 115.212 54.8047 118.271 46.9964C119.075 44.9417 122.574 36.1518 122.944 34.5081C120.712 31.4643 102.123 27.3183 97.7698 26.131C91.1655 24.3117 84.544 22.5556 77.9061 20.8629C74.8168 20.0614 69.7764 18.4806 66.7093 18.1029Z" fill="#E3C46E"/>
</svg>
