<svg width="199" height="220" viewBox="0 0 199 220" fill="none" xmlns="http://www.w3.org/2000/svg">
<path d="M51.0575 24.1336C24.6575 37.3336 2.25753 48.9336 1.3242 49.7336C-0.00913453 50.8003 -0.275801 53.3336 0.257532 59.3336C0.790865 63.7336 1.99087 89.2003 3.05753 115.867C4.1242 142.534 5.19087 164.667 5.59087 164.934C5.85753 165.334 7.99087 166.534 10.2575 167.734C12.5242 169.067 19.9909 173.334 26.7909 177.467C33.4575 181.6 45.7242 188.934 53.7242 193.6C61.8575 198.4 75.0575 206.267 83.3242 211.2C100.258 221.2 99.9909 221.067 106.258 216.8C108.924 215.067 117.724 209.867 125.724 205.334C133.858 200.667 143.458 195.2 147.058 193.067C156.124 187.734 175.858 176 186.791 169.2L195.724 163.6V154.134C195.858 148.934 196.658 123.734 197.591 98.0003C198.658 72.4003 199.191 50.8003 198.791 50.0003C198.258 48.8003 101.458 -0.133061 99.7242 0.000271982C99.3242 0.000271982 77.4575 10.9336 51.0575 24.1336ZM97.0575 15.2003V23.7336L80.7909 27.8669C71.7242 30.1336 57.8575 33.8669 49.7242 35.8669C41.7242 38.0003 33.5909 40.1336 31.7242 40.6669C29.8575 41.0669 42.5242 34.2669 59.7242 25.4669C89.1909 10.2669 95.9909 6.93361 96.7909 6.80027C96.9242 6.66694 97.0575 10.5336 97.0575 15.2003ZM137.058 23.8669C170.258 40.6669 173.591 42.5336 167.724 40.8003C159.191 38.2669 128.391 30.1336 116.124 27.0669L102.391 23.7336V15.0669C102.391 10.4003 102.791 6.66694 103.458 6.93361C103.991 7.06694 119.058 14.8003 137.058 23.8669ZM94.3909 29.7336C94.3909 30.4003 82.6575 51.2003 81.4575 52.6669C80.7909 53.3336 77.9909 58.1336 75.0575 63.3336C72.2575 68.4003 68.7909 74.8003 67.3242 77.3336C65.8575 79.8669 61.4575 88.0003 57.3242 95.3336C44.5242 118.667 36.7909 132.134 36.3909 131.734C35.9909 131.334 30.9242 118.267 22.7909 96.6669C20.9242 91.4669 17.8575 83.7336 16.1242 79.3336C11.8575 68.6669 6.25753 52.9336 6.79087 52.5336C7.05753 52.2669 20.9242 48.6669 49.0575 41.3336C57.4575 39.0669 70.3909 35.6003 77.7242 33.4669C90.7909 29.7336 94.3909 28.9336 94.3909 29.7336ZM119.058 32.8003C131.058 36.1336 155.191 42.5336 180.124 48.9336C187.858 50.9336 193.058 52.9336 193.058 54.0003C193.058 55.6003 190.391 62.8003 187.724 68.6669C187.058 70.1336 184.924 75.4669 182.924 80.6669C181.058 85.7336 177.458 95.3336 174.924 102C172.258 108.534 168.924 117.6 167.458 122C163.991 132.267 163.058 133.067 160.658 128.4C153.724 115.067 127.724 68.6669 113.991 45.0669C107.458 33.8669 105.324 29.2003 106.791 29.3336C106.924 29.3336 112.524 30.9336 119.058 32.8003ZM104.258 37.6003C106.124 41.4669 110.124 48.8003 113.058 54.0003C115.991 59.0669 120.258 66.6669 122.524 70.6669C132.791 89.6003 145.991 112.934 149.724 118.8C152.124 122.667 158.391 134.534 158.391 135.334C158.391 135.734 131.991 136 99.7242 136C67.4575 136 41.0575 135.734 41.0575 135.467C41.0575 135.2 47.1909 124.134 54.6575 111.067C62.1242 98.0003 69.8575 84.2669 71.7242 80.6669C73.7242 76.9336 77.8575 69.4669 81.0575 64.0003C84.1242 58.5336 88.5242 50.6669 90.6575 46.6669C95.5909 37.7336 99.8575 30.6669 100.391 30.6669C100.524 30.6669 102.258 33.8669 104.258 37.6003ZM13.3242 86.0003C14.7909 90.4003 16.9242 95.7336 17.8575 98.0003C18.9242 100.134 21.1909 106.134 22.9242 111.334C24.7909 116.4 27.8575 124.534 29.8575 129.2L33.3242 137.867L30.1242 140.534C28.3909 142.134 23.9909 145.734 20.5242 148.667C16.9242 151.6 13.3242 154.8 12.2575 155.6C11.3242 156.534 10.3909 157.334 9.99087 157.334C9.7242 157.334 9.05753 144.534 8.5242 128.934C8.1242 113.467 7.3242 93.4669 6.9242 84.6669C6.1242 66.9336 6.79086 67.0669 13.3242 86.0003ZM193.858 71.6003C193.458 72.9336 192.791 88.6669 192.258 106.667C191.724 124.667 191.058 143.334 190.524 148.267L189.724 157.2L181.324 150C176.791 146 171.724 141.867 170.124 140.8C166.924 138.534 168.258 131.734 174.524 117.6C177.458 111.334 183.324 95.4669 188.791 79.6003C190.658 74.0003 192.791 69.3336 193.458 69.3336C193.991 69.3336 194.258 70.4003 193.858 71.6003ZM156.791 143.6C149.591 152.134 130.658 175.2 121.724 186.667C104.524 208.667 100.658 213.334 99.8575 213.334C99.3242 213.334 96.6575 210.267 93.7242 206.534C82.1242 191.734 58.9242 162.934 50.9242 153.334C46.2575 147.867 42.3909 142.934 42.3909 142.267C42.3909 141.734 68.5242 141.334 100.658 141.334C155.858 141.334 158.658 141.467 156.791 143.6ZM51.7242 162.267C60.1242 173.067 71.7242 187.467 77.5909 194.267C83.3242 201.2 87.7242 207.067 87.4575 207.334C87.3242 207.6 81.3242 204.267 74.3909 200C67.4575 195.6 58.7909 190.534 55.1909 188.534C51.5909 186.667 47.0575 184 45.1909 182.667C40.6575 179.6 25.3242 170.4 21.0575 168.267C19.1909 167.334 16.3909 165.467 14.7909 164.267L11.8575 162L23.4575 152.4C29.8575 147.067 35.3242 142.8 35.7242 142.8C36.1242 142.8 43.3242 151.6 51.7242 162.267ZM174.791 150.8C180.124 155.334 185.191 159.734 186.258 160.667C187.724 162.134 186.258 163.334 178.258 168.134C172.791 171.334 166.524 175.2 164.124 176.667C161.858 178.134 157.591 180.667 154.791 182.267C149.724 185.2 116.924 204.934 113.058 207.334C111.191 208.534 115.858 202 123.724 192.534C125.591 190.267 128.924 186.134 131.058 183.467C133.324 180.667 137.191 175.867 139.724 172.8C149.858 160.667 152.124 157.734 157.458 150.4C160.524 146.134 163.591 142.667 164.124 142.667C164.658 142.667 169.458 146.4 174.791 150.8Z" fill="#E3C46E"/>
<path d="M93.776 109.376C93.6907 110.741 93.648 111.765 93.648 112.448C93.648 114.581 93.7973 116.437 94.096 118.016C93.6267 119.467 92.5387 120.192 90.832 120.192L87.248 120.128C84.688 120.043 82.6187 120 81.04 120C79.5467 120 77.3493 120.043 74.448 120.128L69.456 120.192C68.688 118.827 68.304 117.099 68.304 115.008L69.328 114.112C71.3333 112.363 72.9547 110.933 74.192 109.824C75.4293 108.672 76.6667 107.392 77.904 105.984C80.0373 103.723 81.5093 101.845 82.32 100.352C83.1733 98.816 83.6 97.3867 83.6 96.064C83.6 94.5707 83.1947 93.4614 82.384 92.736C81.616 91.968 80.5493 91.584 79.184 91.584C77.648 91.584 76.496 92.16 75.728 93.312C74.96 94.4214 74.4267 96.3414 74.128 99.072C72.208 99.1574 70.4373 98.8587 68.816 98.176C68.944 96.896 69.008 95.5307 69.008 94.08C69.008 92.6294 68.944 91.328 68.816 90.176C72.272 88.5974 76.368 87.808 81.104 87.808C85.072 87.808 88.016 88.4054 89.936 89.6C91.8987 90.752 92.88 92.5867 92.88 95.104C92.88 96.7254 92.4747 98.2187 91.664 99.584C90.896 100.907 89.936 102.101 88.784 103.168C87.632 104.192 86.0747 105.429 84.112 106.88C81.2533 109.099 79.1413 110.869 77.776 112.192H84.24C85.648 112.192 86.6507 112.128 87.248 112C87.888 111.829 88.336 111.531 88.592 111.104C88.8907 110.677 89.1253 109.952 89.296 108.928L90.256 108.864C91.7067 108.864 92.88 109.035 93.776 109.376Z" fill="#E3C46E"/>
<path d="M114.103 120.448C109.239 120.448 105.442 119.019 102.711 116.16C99.9803 113.301 98.615 109.269 98.615 104.064C98.615 98.8587 99.9803 94.848 102.711 92.032C105.442 89.1734 109.26 87.744 114.167 87.744C119.031 87.744 122.807 89.152 125.495 91.968C128.226 94.784 129.591 98.7947 129.591 104C129.591 109.248 128.226 113.301 125.495 116.16C122.807 119.019 119.01 120.448 114.103 120.448ZM114.743 116.672C118.37 116.672 120.183 112.917 120.183 105.408C120.183 100.928 119.586 97.4934 118.391 95.104C117.239 92.7147 115.596 91.52 113.463 91.52C109.879 91.52 108.087 95.2534 108.087 102.72C108.087 107.2 108.663 110.656 109.815 113.088C111.01 115.477 112.652 116.672 114.743 116.672Z" fill="#E3C46E"/>
</svg>
