<svg width="139" height="141" viewBox="0 0 139 141" fill="none" xmlns="http://www.w3.org/2000/svg">
<path d="M68.4509 0C69.7571 0.0102974 71.7513 2.71018 72.5008 3.76775C80.0541 14.4276 87.4911 25.1628 94.9239 35.9069L119.997 71.8681C124.991 79.1565 130.274 86.2442 135.16 93.6069C136.405 95.4829 137.709 97.3498 138.708 99.3718C122.453 108.652 106.324 118.151 90.3247 127.865C83.4299 131.959 76.9027 136.132 69.8411 140.014C69.3313 140.178 68.6586 140.177 68.1924 139.941C62.9636 137.292 57.6669 133.759 52.646 130.77L14.0332 107.849C12.1523 106.736 0.569722 100.424 0 99.0194C3.02033 92.7007 11.2625 81.9758 15.6196 75.669L51.0008 24.8469L62.744 7.83385C63.98 6.05629 67.1576 1.2844 68.4509 0ZM70.555 136.107C80.3277 130.79 90.3606 124.544 99.9501 118.91C101.336 118.096 109.642 113.439 110.472 112.757C116.189 109.294 121.925 105.864 127.681 102.465C129.647 101.305 132.739 99.2624 134.596 98.312C132.226 94.252 128.19 88.9085 125.411 84.9565L111.167 64.5091C107.245 58.9103 72.4874 8.49567 70.8576 7.52966C69.9784 9.86774 70.9667 18.2568 70.9416 21.4037L70.555 136.107ZM67.3098 7.29505C65.7902 8.8508 62.4871 13.8195 61.093 15.7913C56.7478 21.8603 52.4483 27.9619 48.1951 34.0957C33.1502 55.3198 18.3268 76.7001 3.72727 98.2329C10.3972 102.129 65.1111 135.837 67.3365 135.725L67.5876 135.281C67.0916 130.405 67.2862 122.518 67.2892 117.47L67.2984 87.8456L67.2881 37.8579C67.2714 27.795 67.1 17.3292 67.3098 7.29505Z" fill="#E3C46E"/>
</svg>
