<svg width="218" height="220" viewBox="0 0 218 220" fill="none" xmlns="http://www.w3.org/2000/svg">
<path fill-rule="evenodd" clip-rule="evenodd" d="M107.2 0.24397C109.067 -0.955662 112.4 2.24472 117.6 10.3778C120 14.1111 122.267 17.4446 122.667 17.8446C123.737 18.7828 138.668 39.9794 149.2 55.1776C153.867 62.1109 160.533 71.5779 163.866 76.1112C167.2 80.6445 171.067 86.1112 172.267 88.1112C173.467 90.1117 180.267 99.9783 187.2 109.845C215.999 150.642 217.333 152.644 217.333 154.777C217.333 155.711 215.333 157.444 213.066 158.644C210.667 159.844 208.4 161.311 208 161.845C207.599 162.245 203.999 164.511 200 166.777C189.733 172.377 164.4 187.177 157.733 191.577C154.533 193.577 151.6 195.178 151.066 195.178C150.666 195.178 149.2 195.978 148.134 197.044C146.934 197.977 143.333 200.378 140 202.111C136.667 203.978 128.667 208.644 122 212.511C115.468 216.377 109.468 219.577 108.667 219.578C107.334 219.578 82.133 205.178 69.333 197.178C66.7996 195.578 60.1335 191.71 54.667 188.511C45.3337 183.044 32 175.177 26 171.577C24.5329 170.643 18.1331 166.91 11.7334 163.044C5.20011 159.31 0 155.444 0 154.511C0.000526225 153.577 3.33383 148.111 7.4668 142.378C25.0668 117.178 60.1337 66.9109 66.667 57.1776C70.6668 51.3112 74.2667 46.245 74.667 45.8446C75.067 45.4446 76.9336 42.7778 78.9336 39.8446C80.9336 36.9112 84.2671 32.1109 86.4004 29.1776C88.4004 26.2442 93.7334 18.7772 98 12.5106C102.267 6.24397 106.4 0.777299 107.2 0.24397ZM111.733 11.1776C111.267 11.1776 110.942 41.2197 110.789 78.0408C110.196 78.0147 109.6 77.9998 109 77.9998C107.985 77.9998 106.979 78.0378 105.982 78.1121C105.943 39.2122 105.839 11.1909 105.733 11.1776C105.6 11.1776 99.8665 19.4442 92.7998 29.4442C85.8665 39.5775 78.933 49.5779 77.333 51.8446C70.6659 61.3118 46.8003 95.5781 38.4004 107.845C33.3337 115.178 26 125.711 22 131.178C18.0002 136.644 13.0671 143.977 10.9336 147.31L7.06641 153.31L14.5332 157.977C21.4665 162.377 44.933 176.244 63.333 186.911C67.733 189.444 72.8003 192.645 74.667 193.845C76.5337 195.178 80.3999 197.444 83.333 199.044C86.2663 200.644 92 203.977 96 206.511C100 209.044 104 211.044 104.667 211.178C105.346 211.172 105.741 193.098 105.906 157.882C106.927 157.96 107.959 158 109 158C109.58 158 110.158 157.984 110.732 157.96C110.824 188.203 111.062 211.165 111.467 211.577C112 211.977 115.733 210.244 119.866 207.577C129.6 201.31 140.267 194.911 148.667 190.378C152.267 188.511 156.667 185.844 158.667 184.511C160.534 183.177 169.468 177.844 178.667 172.511C199.867 160.111 210.667 153.577 210.667 153.044C210.665 152.774 207.999 148.775 204.667 144.244C201.2 139.577 196.533 132.778 194 129.178C191.467 125.444 186.533 118.51 183.066 113.577C179.6 108.644 174.266 101.044 171.333 96.911C168.4 92.6443 158.533 78.3775 149.2 65.1776C140.001 51.978 130.934 39.0451 129.2 36.3778C127.467 33.7111 123.066 26.9108 119.333 21.4442C115.733 15.8445 112.267 11.3114 111.733 11.1776Z" fill="#E3C46E"/>
<path d="M114.864 128.784V129.864C114.864 131.256 115.128 132.192 115.656 132.672C116.232 133.152 117.336 133.488 118.968 133.68C119.208 134.592 119.328 136.08 119.328 138.144C117.552 138.048 113.688 138 107.736 138C102.744 138 99.552 138.048 98.16 138.144C98.16 136.128 98.328 134.64 98.664 133.68C101.16 133.488 102.864 133.104 103.776 132.528C104.736 131.904 105.216 130.92 105.216 129.576V128.784H99.456C96 128.784 93.264 128.904 91.248 129.144C90 126.936 89.352 124.656 89.304 122.304L106.944 101.712C107.904 101.568 108.912 101.496 109.968 101.496C111.648 101.496 113.28 101.664 114.864 102V121.008H118.608C119.328 121.008 119.904 121.104 120.336 121.296C120.768 121.488 121.152 121.872 121.488 122.448C120.816 124.464 120.48 126.576 120.48 128.784H114.864ZM105.72 121.872V109.488L95.064 121.872H105.72Z" fill="#E3C46E"/>
</svg>
