<svg width="123" height="141" viewBox="0 0 123 141" fill="none" xmlns="http://www.w3.org/2000/svg">
<path d="M60.8237 0C62.0706 0.28972 63.5178 1.02418 64.6339 1.66902C74.5226 7.39329 84.4224 13.24 94.3362 18.9111L110.863 28.3764C114.119 30.25 119.43 33.1071 122.154 35.5167V105.183C114.31 109.664 106.502 114.207 98.7309 118.813C88.8088 124.585 78.8059 130.276 68.8699 136.032C66.4958 137.409 64.0021 138.73 61.7922 140.36C58.1796 139.718 33.4704 124.434 28.1361 121.363L10.5407 111.26C7.20751 109.342 3.3856 107.282 0.21581 105.168C-0.299639 82.2891 0.297643 58.357 0.0908515 35.3052C3.16768 32.8021 16.5009 25.4425 20.2549 23.3065L52.9723 4.50778C54.8008 3.47692 59.2512 0.500122 60.8237 0ZM3.07945 103.513C12.1864 109.285 22.6412 115.011 32.0571 120.36L59.3653 136.131C59.5824 134.775 59.6074 124.608 59.5991 122.604L59.9164 87.1035C59.9136 81.9843 59.9164 77.1035 59.9164 72.0969L59.5991 71.1977C47.8395 63.5194 35.0994 57.0843 23.1477 49.6746C16.6929 45.6731 9.23005 42.2677 3.04967 37.9959C3.52421 56.6371 2.77498 75.5351 3.10423 94.2022C3.15795 97.2497 3.17213 100.467 3.07945 103.513ZM61.269 68.1788L98.7337 46.8052C105.018 43.1791 111.278 39.149 117.712 35.8257C111.361 31.5756 101.503 26.4956 94.6869 22.501L70.2198 8.17061C68.5471 7.20404 62.4017 3.48666 61.0408 3.10788C59.4599 3.73408 58.2158 4.52782 56.7686 5.40282C52.9611 7.70694 49.075 9.89167 45.2169 12.1109L4.62915 35.8062C8.88049 37.8498 14.7208 41.6576 18.961 44.1157L50.0891 62.0872C51.7298 63.0262 59.9943 67.8852 61.269 68.1788ZM62.669 135.789C65.6094 134.104 92.9112 118.846 96.7326 116.643C101.654 113.834 106.553 110.985 111.428 108.096C114.217 106.475 116.457 105.405 119.215 103.573L119.199 62.1637C119.199 54.5818 118.906 45.6196 119.229 38.1849L84.5839 58.231L70.2754 66.499C67.957 67.8541 64.7925 69.5604 62.669 71.0877C62.2515 71.783 62.4045 72.6343 62.4351 73.4937C62.4351 75.3273 62.4184 77.0736 62.4351 78.6035C62.6467 96.8269 62.566 117.907 62.4351 136.131C62.4296 137.112 62.925 134.843 62.669 135.789Z" fill="#E3C46E"/>
</svg>
