<svg width="192" height="221" viewBox="0 0 192 221" fill="none" xmlns="http://www.w3.org/2000/svg">
<path fill-rule="evenodd" clip-rule="evenodd" d="M84.1338 5.32139C97.0666 -2.54503 92.5337 -3.74501 125.6 16.1212C129.731 18.6536 133.464 20.6529 133.866 20.6544C134.4 20.6544 136.933 21.9884 139.733 23.7218C142.4 25.4552 148.267 28.9214 152.667 31.588C157.067 34.1213 165.2 38.7884 170.667 41.9884C176.134 45.1884 183.2 49.3219 186.267 51.1886L191.866 54.6544L192 109.988V165.321L187.333 167.988C183.066 170.389 162.4 182.389 140.667 195.055C126.4 203.321 124.8 204.122 110.4 212.522L96 220.788L77.0664 209.855C66.5332 203.855 54.667 197.054 50.667 194.654C46.667 192.388 33.6 184.788 21.7334 177.988L0 165.588V54.5216L7.7334 50.1212C11.8667 47.5879 16.8004 44.5214 18.667 43.3214C20.6671 41.988 25.0672 39.4551 28.667 37.4552C32.4004 35.5885 39.2001 31.5877 44 28.6544C48.7997 25.7213 54.7995 22.3887 57.333 21.1886C59.8662 19.9886 64.3996 17.3219 67.5996 15.1886C70.6663 13.0552 73.4667 11.3214 73.7334 11.3214C74.1338 11.3211 78.8007 8.65456 84.1338 5.32139ZM102 8.78819C96.9334 5.18822 94.8001 5.32156 89.2002 9.05479C85.2002 11.7215 76.9336 16.5219 64.667 23.1886C62.5337 24.3886 55.3336 28.655 48.667 32.5216C26.6676 45.5879 19.3337 49.7212 14.4004 52.1212C11.6004 53.4545 9.33301 54.9218 9.33301 55.4552C9.33578 56.2568 19.3328 63.3209 20.5332 63.3214C20.9955 63.3214 34.9841 71.2373 53.7266 82.1173C52.6648 83.6769 51.6896 85.2996 50.8047 86.9776C48.5941 85.7115 47.086 84.8639 46.667 84.6544C45.6003 83.9877 38.1333 79.5886 30 74.922C22.0002 70.2554 13.0673 65.0549 10.4004 63.3214L5.33301 60.3878V161.722L16.4004 168.121C22.4004 171.588 33.0672 177.988 40.1338 182.255C47.3336 186.522 54.1335 190.389 55.4668 190.922C56.9334 191.455 59.4665 192.788 61.333 194.121C64.5329 196.388 90.2651 211.587 92.2666 212.388C92.9333 212.654 93.333 189.988 93.333 162.121V160.953C94.0516 160.984 94.774 161 95.5 161C96.5653 161 97.6229 160.966 98.6719 160.901L98.667 161.321C98.267 188.921 98.4003 211.855 98.9336 212.121C99.4669 212.521 101.6 211.588 103.6 210.121C105.733 208.788 113.334 204.122 120.667 199.988C128 195.722 139.6 189.055 146.267 185.189C153.066 181.189 164.533 174.655 171.6 170.522C178.8 166.388 185.067 162.655 185.733 162.121C186.267 161.583 186.534 138.519 186.4 110.922L186 60.6544L178 65.3214C173.6 67.988 169.067 70.6547 168 71.3214C166.933 71.9881 163.333 74.1217 160 75.9884C157.702 77.2755 149.889 81.7319 140.32 87.2159C139.467 85.5759 138.526 83.9885 137.504 82.4601C141.848 79.9324 147.599 76.5375 151.333 74.3878C155.733 71.8545 163.866 67.3211 169.333 64.3878C179.199 59.0547 183.733 55.8554 182.533 54.922C182 54.3886 166 45.5879 159.333 42.1212C157.199 40.9209 150.4 36.9212 144.267 33.3214C128.4 23.8548 121.733 19.8552 113.333 15.4552C109.333 13.1885 104.267 10.2548 102 8.78819Z" fill="#E3C46E"/>
<path d="M97.952 104.6C102.32 104.6 105.632 105.608 107.888 107.624C110.144 109.592 111.272 112.256 111.272 115.616C111.272 118.448 110.504 120.824 108.968 122.744C107.48 124.664 105.488 126.104 102.992 127.064C100.496 128.024 97.76 128.504 94.784 128.504C89.984 128.504 86.24 127.232 83.552 124.688C80.864 122.144 79.52 118.376 79.52 113.384C79.52 108.008 80.96 103.736 83.84 100.568C86.72 97.352 90.104 95.096 93.992 93.8C97.88 92.504 101.672 91.736 105.368 91.496C105.656 91.832 105.896 92.312 106.088 92.936C106.28 93.56 106.376 94.208 106.376 94.88C106.376 95.264 106.352 95.552 106.304 95.744C101.648 96.272 98.096 97.352 95.648 98.984C93.2 100.616 91.544 102.872 90.68 105.752C92.936 104.984 95.36 104.6 97.952 104.6ZM95.864 123.608C97.592 123.608 98.888 123.008 99.752 121.808C100.616 120.608 101.048 118.976 101.048 116.912C101.048 114.32 100.376 112.352 99.032 111.008C97.688 109.664 95.984 108.992 93.92 108.992C92.528 108.992 91.208 109.232 89.96 109.712C89.864 110.96 89.816 111.992 89.816 112.808C89.816 120.008 91.832 123.608 95.864 123.608Z" fill="#E3C46E"/>
</svg>
