<svg width="123" height="140" viewBox="0 0 123 140" fill="none" xmlns="http://www.w3.org/2000/svg">
<path d="M59.9196 0.0112531C62.9839 -0.26483 70.4651 4.61449 73.4849 6.36255L91.6843 17.0001L109.28 27.1709C112.959 29.2735 118.64 32.3653 122.013 34.8035C121.771 58.26 122.18 81.6555 122.155 105.058C117.084 108.183 110.83 111.577 105.595 114.576L78.581 130.113C72.9144 133.344 67.7849 135.968 62.1657 139.544C60.056 140.158 51.2555 134.387 49.1096 133.133L34.0915 124.5L13.1228 112.455C8.81998 109.986 4.14141 107.448 0 104.799C0.520459 81.8534 0.264418 58.0897 0.22267 35.1077C4.72033 31.6553 12.2238 27.7275 17.3394 24.7354L50.2897 5.53319C53.4848 3.65377 56.7801 1.96332 59.9196 0.0112531ZM57.3229 10.5578C48.5781 26.2603 38.9482 42.1306 29.9974 57.8158C23.0477 69.9921 15.5776 83.5901 8.22159 95.3656C7.31705 97.434 4.76209 101.13 5.21018 102.523C7.25584 102.347 16.3291 102.133 18.2383 102.381C26.343 102.192 110.399 102.241 110.671 102.392C112.107 102.447 114.687 102.471 116.021 102.688C116.925 102.799 117.206 102.674 118.094 102.427C117.109 100.156 111.604 91.7877 109.864 88.6483C101.103 73.1223 92.2164 57.6668 83.2067 42.2834C79.8724 36.5474 73.5824 26.4946 70.8242 20.8243C68.6561 16.7928 62.4161 7.32606 61.3028 3.69162C60.1589 5.84462 58.5725 8.29291 57.3229 10.5578ZM74.2225 20.843C75.0602 21.8972 77.4705 26.223 78.2525 27.5811L85.9982 41.0112L107.348 78.1511C110.977 84.4656 115.127 91.9288 118.935 98.0989C119.394 92.9507 119.104 82.5403 119.107 77.0028L119.129 36.0938C102.347 26.0624 84.6901 16.52 67.8128 6.56933L66.3739 6.15131L66.2096 6.53677C68.9761 11.3988 71.6313 15.797 74.2225 20.843ZM114.476 105.729C112.082 105.027 94.551 105.436 91.097 105.434L34.1805 105.426C25.7725 105.43 15.4663 105.805 7.25862 105.49C8.29118 106.066 9.91099 106.882 10.7209 107.658C11.9038 108.04 19.3628 112.776 21.1468 113.811L47.6791 129.027C51.9457 131.527 56.8247 134.854 61.0245 137.078C62.0292 136.33 64.4089 135.104 65.6725 134.367C69.4349 132.156 73.2118 129.971 77.0029 127.81L107.704 109.874C108.74 109.255 114.022 106.3 114.476 105.729ZM3.59034 97.6013C8.31065 89.9898 56.0704 7.63192 56.0788 6.29103L55.7838 6.2337C53.5711 6.90498 44.6092 12.2482 42.0681 13.6826L21.1189 25.7429C16.7215 28.2739 6.69363 33.4462 3.50129 36.6181C2.74426 38.8786 3.01145 53.7336 3.01423 57.4991C2.9864 70.6637 3.03648 83.8286 3.16729 96.9929L3.59034 97.6013Z" fill="#E3C46E"/>
</svg>
