<svg width="192" height="222" viewBox="0 0 192 222" fill="none" xmlns="http://www.w3.org/2000/svg">
<path d="M90.6667 2.61255C88.1333 4.21255 82.1333 7.67922 77.3333 10.3459C72.5333 13.0126 64.8 17.5459 60 20.3459C55.2 23.1459 44.4 29.2792 36 34.0792C21.4667 42.3459 14 46.6126 4.26667 52.3459L0 55.0126L0.266667 110.213L0.666667 165.413L10 171.013C15.2 173.946 23.6 179.013 28.6667 181.946C57.0667 198.346 64.8 202.879 79.8667 211.679L96.4 221.413L100.533 218.879C109.6 213.546 135.733 198.213 143.333 193.946C152.267 188.879 165.067 181.413 176 174.879C180 172.479 185.333 169.546 187.733 168.479L192 166.479L191.733 110.213L191.333 53.9459L175.333 44.6126C159.333 35.2792 151.6 30.7459 131.333 19.4125C115.867 10.6125 112.133 8.47922 104.267 3.81255C95.8667 -1.12078 96.5333 -0.987451 90.6667 2.61255ZM105.333 22.4792C105.333 22.8792 108.4 28.6126 112.267 35.1459C119.2 47.1459 124.533 56.4792 134.267 73.6792C137.2 78.7459 143.067 89.0126 147.333 96.3459C151.6 103.679 157.333 113.546 160 118.346C162.667 123.146 169.2 134.213 174.533 143.013C179.867 151.813 184.267 159.546 184.4 160.079C184.533 160.613 145.067 161.146 96.6667 161.146C48.2667 161.279 8.8 160.879 8.93333 160.479C10.2667 157.413 18.8 141.946 26.1333 129.679C31.0667 121.546 36.2667 112.613 37.8667 109.679C41.3333 103.679 49.0667 90.0792 56 78.3459C62.8 66.6126 75.7333 43.9459 92 15.0126C93.6 12.0792 95.2 9.14588 95.6 8.61255C96.1333 7.67922 105.2 20.6126 105.333 22.4792ZM88 11.0125C88 12.6125 83.3333 21.0126 82.4 21.0126C81.8667 21.0126 81.3333 21.5459 81.3333 22.3459C81.3333 23.0126 76.8 31.2792 71.2 40.6126C65.6 49.9459 58.2667 62.4792 55.0667 68.3459C51.7333 74.2126 46.8 82.8792 44.1333 87.6792C26.9333 117.413 18.6667 131.946 14.9333 139.013C4.8 157.813 5.33333 159.679 5.46667 106.879C5.46667 54.7459 4.93333 58.0792 15.3333 52.3459C32.2667 43.1459 77.6 16.6125 82.6667 12.8792C86 10.4792 88 9.81255 88 11.0125ZM111.733 13.9459C115.2 16.0792 118.933 18.2126 120.267 19.0126C125.467 21.9459 144.933 33.5459 149.333 36.2126C151.867 37.8126 161.333 43.2792 170.4 48.3459L186.667 57.5459V153.679L182.8 147.013C172.8 129.279 167.467 119.946 155.333 99.0126C137.067 67.4126 124.133 45.1459 118.4 35.4126C115.733 30.7459 112.667 25.2792 111.467 23.2792C110.4 21.2792 108.267 17.5459 106.667 15.0126C103.2 9.41255 103.733 9.27922 111.733 13.9459ZM178.667 166.879C178.667 167.413 157.467 179.813 139.333 189.946C134.933 192.479 130.4 195.013 129.333 195.679C126.933 197.146 115.067 204.079 106.667 208.746C103.333 210.613 99.7333 212.746 98.5333 213.413C96.5333 214.613 81.3333 206.879 62.6667 195.013C53.4667 189.279 17.2 169.013 15.8667 169.013C15.2 169.013 14.6667 168.346 14.6667 167.679C14.6667 166.746 42.9333 166.346 96.6667 166.346C141.733 166.346 178.667 166.613 178.667 166.879Z" fill="#E3C46E"/>
<path d="M101.832 108.336C104.616 109.872 106.752 111.456 108.24 113.088C109.728 114.72 110.472 116.76 110.472 119.208C110.472 122.376 109.128 124.896 106.44 126.768C103.8 128.592 100.104 129.504 95.352 129.504C90.84 129.504 87.288 128.664 84.696 126.984C82.104 125.256 80.808 122.952 80.808 120.072C80.808 118.056 81.456 116.352 82.752 114.96C84.048 113.568 85.968 112.416 88.512 111.504C86.544 110.256 84.984 108.888 83.832 107.4C82.68 105.864 82.104 104.088 82.104 102.072C82.104 99.192 83.304 96.912 85.704 95.232C88.152 93.504 91.488 92.64 95.712 92.64C99.744 92.64 102.936 93.384 105.288 94.872C107.688 96.312 108.888 98.208 108.888 100.56C108.888 102.24 108.24 103.776 106.944 105.168C105.696 106.512 103.992 107.568 101.832 108.336ZM95.064 96.312C93.816 96.312 92.832 96.576 92.112 97.104C91.44 97.632 91.104 98.376 91.104 99.336C91.104 100.488 91.584 101.592 92.544 102.648C93.552 103.656 95.04 104.712 97.008 105.816C98.928 104.952 99.888 103.344 99.888 100.992C99.888 99.456 99.456 98.304 98.592 97.536C97.728 96.72 96.552 96.312 95.064 96.312ZM96.072 125.256C97.656 125.256 98.88 124.944 99.744 124.32C100.656 123.648 101.112 122.76 101.112 121.656C101.112 120.408 100.512 119.256 99.312 118.2C98.112 117.096 96.168 115.8 93.48 114.312C91.224 115.416 90.096 117.168 90.096 119.568C90.096 121.296 90.624 122.688 91.68 123.744C92.736 124.752 94.2 125.256 96.072 125.256Z" fill="#E3C46E"/>
</svg>
