<svg width="199" height="220" viewBox="0 0 199 220" fill="none" xmlns="http://www.w3.org/2000/svg">
<path d="M92.6659 2.75205C98.9323 -1.51451 98.6664 -1.6482 115.599 8.35165C123.866 13.285 137.066 21.1522 145.199 25.9522C153.199 30.6189 165.466 37.9517 172.133 42.0851C178.932 46.2182 186.399 50.485 188.666 51.8185C190.932 53.0184 193.066 54.2192 193.333 54.6192C193.733 54.8982 194.8 77.0266 195.866 103.686C196.933 130.352 198.133 155.818 198.666 160.219C199.199 166.218 198.932 168.752 197.599 169.818C196.666 170.618 174.266 182.219 147.866 195.419C121.469 208.618 99.6034 219.55 99.1991 219.552C97.4574 219.681 0.665966 170.752 0.132656 169.552C-0.267072 168.747 0.26631 147.149 1.33285 121.552C2.26616 95.8191 3.06571 70.6196 3.19906 65.419V55.9522L12.1327 50.3517C23.0661 43.5516 42.7995 31.8187 51.8661 26.4854C55.4662 24.352 65.0659 18.8854 73.1991 14.2188C81.199 9.68557 89.9991 4.48541 92.6659 2.75205ZM139.199 194.085C156.399 185.285 169.065 178.486 167.199 178.886C165.332 179.419 157.199 181.552 149.199 183.686C141.066 185.686 127.199 189.419 118.133 191.686L104.74 195.088C103.784 197.055 102.826 199.027 101.866 201V204.352C101.866 209.018 101.999 212.885 102.133 212.752C102.933 212.618 109.734 209.284 139.199 194.085ZM31.1991 178.752C25.3327 177.019 28.6665 178.886 61.8661 195.686C79.8639 204.751 94.929 212.484 95.4657 212.619C96.1323 212.886 96.533 209.152 96.533 204.485V200.999C96.522 200.999 96.5109 201 96.4998 201C95.5439 199.035 94.5841 197.072 93.6239 195.112L82.7996 192.485C70.533 189.419 39.7325 181.285 31.1991 178.752ZM36.3543 88.5167C35.0537 87.8699 33.868 90.4373 31.4657 97.5518C29.999 101.952 26.6655 111.019 23.9989 117.552C21.4656 124.218 17.8656 133.819 15.9989 138.886C13.999 144.085 11.8658 149.419 11.1991 150.886C8.53269 156.752 5.86653 163.951 5.86605 165.552C5.86605 166.619 11.0663 168.619 18.7996 170.619C43.7328 177.019 67.8661 183.419 79.8661 186.752C84.7664 188.152 89.1417 189.402 91.0789 189.94C89.5207 186.78 87.9616 183.634 86.4022 180.508C77.405 163.781 68.6581 147.262 60.161 130.95C50.6439 113.979 41.8741 98.0901 38.2664 91.1524C38.1208 90.8693 37.9803 90.6064 37.8446 90.3643C37.259 89.6942 36.7841 89.0781 36.3543 88.5167ZM162.533 87.8185C162.133 87.4189 154.399 100.886 141.599 124.219C137.466 131.552 133.066 139.685 131.599 142.219C130.133 144.752 126.666 151.152 123.866 156.219C123.525 156.823 123.185 157.422 122.85 158.01C117.795 168.26 112.59 178.944 107.316 189.789C109.763 189.282 114.074 188.121 121.199 186.085C128.532 183.952 141.466 180.485 149.866 178.219C177.999 170.886 191.866 167.285 192.133 167.019C192.664 166.614 187.066 150.884 182.8 140.219C181.066 135.819 177.999 128.086 176.133 122.886C168 101.286 162.933 88.219 162.533 87.8185ZM99.1991 83.5518C92.56 83.5518 86.1693 83.5656 80.2059 83.587C75.0594 83.8248 71.1347 85.2832 68.8612 86.2071C66.7336 87.0178 65.6699 88.5235 65.6698 90.7237C65.6698 93.2716 67.4173 97.5571 70.9129 103.579C79.4368 118.957 88.632 136.778 98.4998 157.04C108.368 136.778 117.563 118.957 126.087 103.579C129.582 97.5571 131.33 93.2716 131.33 90.7237C131.33 88.5235 130.266 87.0178 128.139 86.2071C125.867 85.2838 122.193 83.8215 117.054 83.5821C111.418 83.5642 105.417 83.5519 99.1991 83.5518ZM8.39926 71.2852C7.86593 76.2186 7.19919 94.8859 6.66586 112.886C6.13255 130.885 5.46625 146.618 5.06625 147.952C4.66635 149.152 4.93254 150.218 5.46566 150.219C6.13246 150.218 8.26611 145.552 10.1327 139.952C15.5993 124.086 21.4659 108.219 24.3993 101.952C27.9457 93.9539 29.91 88.3039 30.369 84.4952C30.3635 84.4785 30.357 84.4621 30.3514 84.4454C30.1108 83.759 29.8004 83.0629 29.4383 82.339C28.6148 80.7415 27.5311 79.0704 26.4998 77.0255C26.5011 77.0256 26.5025 77.0254 26.5037 77.0255C24.1802 75.1914 20.7595 72.3401 17.5995 69.5518L9.19906 62.3517L8.39926 71.2852ZM188.932 62.2188C188.532 62.2191 187.599 63.0191 186.666 63.9522C185.599 64.7524 181.999 67.9527 178.399 70.8858C175.952 72.9567 173.04 75.3603 170.929 77.1573C169.031 81.432 167.675 82.8262 166.925 85.0001L169.066 90.3517C171.066 95.0183 174.132 103.152 175.999 108.219C177.732 113.419 180 119.418 181.066 121.552C182 123.818 184.133 129.152 185.599 133.552C192.133 152.485 192.799 152.619 191.999 134.886C191.599 126.086 190.799 106.086 190.399 90.6192C189.866 75.0216 189.199 62.2227 188.932 62.2188ZM99.0662 6.21884C98.2663 6.21884 94.399 10.886 77.1991 32.8858C68.2657 44.3526 49.3327 67.4189 42.1327 75.9522C41.9182 76.1973 41.7667 76.4163 41.7479 76.6114C41.2102 77.2481 41.654 78.2498 42.5135 78.2501H155.486C156.057 78.2499 156.442 77.8071 156.481 77.3233C156.515 77.3099 156.533 77.2988 156.533 77.2852C156.533 77.2375 156.512 77.1683 156.473 77.0782C156.441 76.8886 156.352 76.7029 156.195 76.545L156.16 76.5099C155.085 74.789 151.808 70.6814 147.999 66.2188C139.999 56.6186 116.799 27.8185 105.199 13.0186C102.266 9.28631 99.6005 6.22029 99.0662 6.21884ZM75.1991 27.0186C83.0654 17.5523 87.7323 11.0194 85.8661 12.2188C81.9994 14.6188 49.2001 34.3514 44.1327 37.2852C41.3327 38.8852 37.0664 41.4191 34.7996 42.8858C32.3997 44.3525 26.1325 48.2191 20.6659 51.419C12.6661 56.2189 11.1992 57.4192 12.6659 58.8858C13.7328 59.8194 18.7996 64.2189 24.1327 68.752C29.466 73.152 34.2663 76.8858 34.7996 76.8858C35.3342 76.8839 38.3999 73.4178 41.4657 69.1524C46.7989 61.8192 49.0659 58.8852 59.1991 46.752C61.7324 43.6854 65.5994 38.885 67.8661 36.0851C69.9994 33.4184 73.3325 29.2852 75.1991 27.0186ZM124.533 19.5518C117.601 15.2861 111.602 11.9538 111.466 12.2188C111.201 12.4882 115.601 18.3537 121.333 25.2852C127.199 32.0852 138.799 46.4853 147.199 57.2852C155.597 67.9495 162.796 76.7481 163.199 76.752C163.6 76.7512 169.066 72.4851 175.466 67.1524L187.066 57.5518L184.133 55.2852C182.533 54.0853 179.733 52.2186 177.866 51.2852C173.599 49.1519 158.266 39.9525 153.732 36.8858C151.866 35.5525 147.332 32.8853 143.732 31.0186C140.132 29.0185 131.466 23.9517 124.533 19.5518Z" fill="#E3C46E"/>
<path d="M143 78C155.377 78 164.113 78.3474 170 78C168.556 81 166.708 83.6837 165.953 86C163.086 86.2316 163.811 86.2805 162.302 87.207C160.641 88.1335 158.982 89.8711 157.321 92.4189C155.661 94.8511 153.095 99.1942 149.623 105.448C135.888 130.233 118.854 165.75 101.345 202C98.0241 202 101.477 202 96.5117 202C79.9084 171.193 60.443 135.417 45.5 106C41 97.1413 40.4996 96.0002 37.7764 91.377C35.0595 88.25 34.721 86.3107 30.3438 85.5C29.589 83.2995 28.1221 80.9999 26.5 78.0254C32.9903 78.3728 40.1915 78.5215 49.0967 78.5215C55.2852 78.5215 61.7005 78.3474 68.3418 78C68.3418 80.7794 67.9646 83.2693 67.21 85.4697C62.8331 85.9329 59.6634 86.9755 57.7012 88.5967C55.739 90.1022 54.7579 92.303 54.7578 95.1982C54.7578 98.2094 55.8137 102.032 57.9268 106.664C67.285 126.816 78.5304 148.358 91.6621 171.289C103.888 145.462 115.134 123.225 125.397 104.579C128.869 98.557 130.604 94.2715 130.604 91.7236C130.604 89.5232 128.113 86.2804 126 85.4697C123.736 84.5432 121.632 83.7316 116.5 83.5C115.745 80.8363 115.209 80.3163 115.209 78H143Z" fill="white"/>
<path d="M28 78C29.4536 81 30.24 83.1837 31 85.5C33.8878 85.7316 34.232 86.2805 35.752 87.207C37.4238 88.1336 39.0957 89.8711 40.7676 92.4189C42.4395 94.8511 45.0228 99.1944 48.5186 105.448C62.3498 130.233 80.869 165.75 98.5 202H102C118.719 171.193 137.206 135.387 152.253 105.97C155.597 99.3685 158.561 94.504 161.145 91.377C163.88 88.2501 164.222 86.3108 168.629 85.5C169.389 83.2995 170.867 80.9999 172.5 78.0254C165.964 78.3728 158.713 78.5215 149.745 78.5215C143.514 78.5215 137.054 78.3474 130.366 78C130.366 80.7795 130.747 83.2693 131.507 85.4697C135.914 85.933 139.106 86.9754 141.082 88.5967C143.058 90.1022 144.046 92.303 144.046 95.1982C144.046 98.2094 142.981 102.031 140.854 106.664C131.43 126.816 120.107 148.358 106.884 171.289C94.5725 145.462 83.2495 123.225 72.9141 104.579C69.4183 98.5568 67.6699 94.2715 67.6699 91.7236C67.6702 89.5233 69.5002 87.2072 71.5 86C74.1384 84.7927 74.5001 84 82 83.5C82.76 80.8363 83.1729 80.3163 83.1729 78H28Z" fill="white"/>
</svg>
